<mxfile host="app.diagrams.net" agent="Mozilla/5.0 (Windows NT 10.0; Win64; x64) AppleWebKit/537.36 (KHTML, like Gecko) Chrome/136.0.0.0 Safari/537.36 Edg/136.0.0.0" version="27.0.6">
  <diagram name="Page-1" id="5_F7UyvFgVzA78v7fz38">
    <mxGraphModel dx="3283" dy="2391" grid="1" gridSize="10" guides="1" tooltips="1" connect="1" arrows="1" fold="1" page="1" pageScale="1" pageWidth="850" pageHeight="1100" math="0" shadow="0">
      <root>
        <mxCell id="0" />
        <mxCell id="1" parent="0" />
        <mxCell id="R8-eEjEKegjlY97keTf1-1" value="Mahasiswa" style="shape=umlActor;verticalLabelPosition=bottom;verticalAlign=top;html=1;outlineConnect=0;" parent="1" vertex="1">
          <mxGeometry x="10" y="1160" width="54" height="90" as="geometry" />
        </mxCell>
        <mxCell id="_SgLw8yUqNkleDeMltTC-3" value="iLearnMate Mobile Application" style="text;align=center;fontStyle=1;verticalAlign=middle;spacingLeft=3;spacingRight=3;strokeColor=none;rotatable=0;points=[[0,0.5],[1,0.5]];portConstraint=eastwest;html=1;" vertex="1" parent="1">
          <mxGeometry x="300" y="-90" width="230" height="26" as="geometry" />
        </mxCell>
        <mxCell id="_SgLw8yUqNkleDeMltTC-1" value="" style="shape=folder;fontStyle=1;spacingTop=10;tabWidth=240;tabHeight=30;tabPosition=left;html=1;whiteSpace=wrap;" vertex="1" parent="1">
          <mxGeometry x="-300" y="1010" width="270" height="460" as="geometry" />
        </mxCell>
        <mxCell id="_SgLw8yUqNkleDeMltTC-5" value="Manajemen Akun &amp;amp; Preferensi Pengguna" style="text;html=1;align=center;verticalAlign=middle;resizable=0;points=[];autosize=1;strokeColor=none;fillColor=none;" vertex="1" parent="1">
          <mxGeometry x="-300" y="1010" width="240" height="30" as="geometry" />
        </mxCell>
        <mxCell id="_SgLw8yUqNkleDeMltTC-12" value="Melakukan&amp;nbsp;&lt;span style=&quot;background-color: transparent; color: light-dark(rgb(0, 0, 0), rgb(255, 255, 255));&quot;&gt;Login&lt;/span&gt;" style="ellipse;whiteSpace=wrap;html=1;" vertex="1" parent="1">
          <mxGeometry x="-240" y="1205" width="140" height="70" as="geometry" />
        </mxCell>
        <mxCell id="_SgLw8yUqNkleDeMltTC-13" value="Melakukan&amp;nbsp;&lt;span style=&quot;background-color: transparent; color: light-dark(rgb(0, 0, 0), rgb(255, 255, 255));&quot;&gt;Register&amp;nbsp;&lt;/span&gt;" style="ellipse;whiteSpace=wrap;html=1;" vertex="1" parent="1">
          <mxGeometry x="-240" y="1090" width="140" height="70" as="geometry" />
        </mxCell>
        <mxCell id="_SgLw8yUqNkleDeMltTC-14" value="Kelola Preferensi AI dan Profil Pengguna" style="ellipse;whiteSpace=wrap;html=1;" vertex="1" parent="1">
          <mxGeometry x="-240" y="1345" width="140" height="70" as="geometry" />
        </mxCell>
        <mxCell id="_SgLw8yUqNkleDeMltTC-16" value="Extends" style="endArrow=block;endSize=16;endFill=0;html=1;rounded=0;" edge="1" parent="1" source="_SgLw8yUqNkleDeMltTC-14" target="_SgLw8yUqNkleDeMltTC-12">
          <mxGeometry width="160" relative="1" as="geometry">
            <mxPoint x="-200" y="830" as="sourcePoint" />
            <mxPoint x="-40" y="830" as="targetPoint" />
          </mxGeometry>
        </mxCell>
        <mxCell id="_SgLw8yUqNkleDeMltTC-17" value="Database" style="shape=cylinder3;whiteSpace=wrap;html=1;boundedLbl=1;backgroundOutline=1;size=15;" vertex="1" parent="1">
          <mxGeometry x="648" y="240" width="60" height="80" as="geometry" />
        </mxCell>
        <mxCell id="_SgLw8yUqNkleDeMltTC-18" value="" style="endArrow=open;endFill=1;endSize=12;html=1;rounded=0;entryX=1;entryY=0.5;entryDx=0;entryDy=0;exitX=0.25;exitY=0.1;exitDx=0;exitDy=0;exitPerimeter=0;" edge="1" parent="1" source="R8-eEjEKegjlY97keTf1-1" target="_SgLw8yUqNkleDeMltTC-13">
          <mxGeometry width="160" relative="1" as="geometry">
            <mxPoint x="-20" y="1150" as="sourcePoint" />
            <mxPoint x="450" y="470" as="targetPoint" />
          </mxGeometry>
        </mxCell>
        <mxCell id="_SgLw8yUqNkleDeMltTC-19" value="" style="endArrow=open;endFill=1;endSize=12;html=1;rounded=0;entryX=1;entryY=0.5;entryDx=0;entryDy=0;exitX=0;exitY=0.3333333333333333;exitDx=0;exitDy=0;exitPerimeter=0;" edge="1" parent="1" source="R8-eEjEKegjlY97keTf1-1" target="_SgLw8yUqNkleDeMltTC-12">
          <mxGeometry width="160" relative="1" as="geometry">
            <mxPoint x="-20" y="1170" as="sourcePoint" />
            <mxPoint x="450" y="470" as="targetPoint" />
          </mxGeometry>
        </mxCell>
        <mxCell id="_SgLw8yUqNkleDeMltTC-28" value="" style="shape=folder;fontStyle=1;spacingTop=10;tabWidth=140;tabHeight=30;tabPosition=left;html=1;whiteSpace=wrap;" vertex="1" parent="1">
          <mxGeometry x="160" y="625" width="480" height="460" as="geometry" />
        </mxCell>
        <mxCell id="_SgLw8yUqNkleDeMltTC-29" value="Manajemen Jadwal" style="text;html=1;align=center;verticalAlign=middle;resizable=0;points=[];autosize=1;strokeColor=none;fillColor=none;" vertex="1" parent="1">
          <mxGeometry x="160" y="625" width="130" height="30" as="geometry" />
        </mxCell>
        <mxCell id="_SgLw8yUqNkleDeMltTC-30" value="Melihat Tampilan Jadwal" style="ellipse;whiteSpace=wrap;html=1;" vertex="1" parent="1">
          <mxGeometry x="170" y="840" width="140" height="70" as="geometry" />
        </mxCell>
        <mxCell id="_SgLw8yUqNkleDeMltTC-31" value="Masukkan Jadwal" style="ellipse;whiteSpace=wrap;html=1;" vertex="1" parent="1">
          <mxGeometry x="200" y="695" width="140" height="70" as="geometry" />
        </mxCell>
        <mxCell id="_SgLw8yUqNkleDeMltTC-32" value="Manual Menyesuaikan Jadwal&amp;nbsp;" style="ellipse;whiteSpace=wrap;html=1;" vertex="1" parent="1">
          <mxGeometry x="250" y="965" width="140" height="70" as="geometry" />
        </mxCell>
        <mxCell id="_SgLw8yUqNkleDeMltTC-34" value="&amp;nbsp; Membuat / Mengusulkan Jadwal" style="ellipse;whiteSpace=wrap;html=1;" vertex="1" parent="1">
          <mxGeometry x="450" y="925" width="140" height="70" as="geometry" />
        </mxCell>
        <mxCell id="_SgLw8yUqNkleDeMltTC-36" value="" style="endArrow=open;endFill=1;endSize=12;html=1;rounded=0;entryX=0;entryY=1;entryDx=0;entryDy=0;exitX=0.5;exitY=0;exitDx=0;exitDy=0;exitPerimeter=0;" edge="1" parent="1" source="R8-eEjEKegjlY97keTf1-1" target="_SgLw8yUqNkleDeMltTC-30">
          <mxGeometry width="160" relative="1" as="geometry">
            <mxPoint x="70" y="1090" as="sourcePoint" />
            <mxPoint x="430" y="990" as="targetPoint" />
          </mxGeometry>
        </mxCell>
        <mxCell id="_SgLw8yUqNkleDeMltTC-37" value="Extends" style="endArrow=block;endSize=16;endFill=0;html=1;rounded=0;exitX=0.5;exitY=0;exitDx=0;exitDy=0;entryX=0.5;entryY=1;entryDx=0;entryDy=0;" edge="1" parent="1" source="_SgLw8yUqNkleDeMltTC-32" target="_SgLw8yUqNkleDeMltTC-30">
          <mxGeometry width="160" relative="1" as="geometry">
            <mxPoint x="250" y="895" as="sourcePoint" />
            <mxPoint x="410" y="895" as="targetPoint" />
          </mxGeometry>
        </mxCell>
        <mxCell id="_SgLw8yUqNkleDeMltTC-38" value="Include" style="endArrow=block;endSize=16;endFill=0;html=1;rounded=0;exitX=0;exitY=0;exitDx=0;exitDy=0;" edge="1" parent="1" source="_SgLw8yUqNkleDeMltTC-41" target="_SgLw8yUqNkleDeMltTC-31">
          <mxGeometry width="160" relative="1" as="geometry">
            <mxPoint x="380" y="835" as="sourcePoint" />
            <mxPoint x="410" y="765" as="targetPoint" />
          </mxGeometry>
        </mxCell>
        <mxCell id="_SgLw8yUqNkleDeMltTC-39" value="Mengakses Kalender Eksternal" style="ellipse;whiteSpace=wrap;html=1;" vertex="1" parent="1">
          <mxGeometry x="480" y="715" width="140" height="70" as="geometry" />
        </mxCell>
        <mxCell id="_SgLw8yUqNkleDeMltTC-40" value="Include" style="endArrow=block;endSize=16;endFill=0;html=1;rounded=0;entryX=0.5;entryY=0;entryDx=0;entryDy=0;exitX=0.5;exitY=1;exitDx=0;exitDy=0;" edge="1" parent="1" source="_SgLw8yUqNkleDeMltTC-39" target="_SgLw8yUqNkleDeMltTC-34">
          <mxGeometry width="160" relative="1" as="geometry">
            <mxPoint x="440" y="745" as="sourcePoint" />
            <mxPoint x="520" y="745" as="targetPoint" />
          </mxGeometry>
        </mxCell>
        <mxCell id="_SgLw8yUqNkleDeMltTC-41" value="Menganalisis Data Jadwal &amp;amp; Preferensi" style="ellipse;whiteSpace=wrap;html=1;" vertex="1" parent="1">
          <mxGeometry x="340" y="805" width="140" height="70" as="geometry" />
        </mxCell>
        <mxCell id="_SgLw8yUqNkleDeMltTC-42" value="Include" style="endArrow=block;endSize=16;endFill=0;html=1;rounded=0;exitX=0;exitY=0;exitDx=0;exitDy=0;entryX=0.698;entryY=0.995;entryDx=0;entryDy=0;entryPerimeter=0;" edge="1" parent="1" source="_SgLw8yUqNkleDeMltTC-34" target="_SgLw8yUqNkleDeMltTC-41">
          <mxGeometry x="-0.0131" width="160" relative="1" as="geometry">
            <mxPoint x="310" y="955" as="sourcePoint" />
            <mxPoint x="470" y="955" as="targetPoint" />
            <mxPoint as="offset" />
          </mxGeometry>
        </mxCell>
        <mxCell id="_SgLw8yUqNkleDeMltTC-43" value="LLM Agent" style="shape=umlActor;verticalLabelPosition=bottom;verticalAlign=top;html=1;outlineConnect=0;" vertex="1" parent="1">
          <mxGeometry x="828" y="1180" width="54" height="90" as="geometry" />
        </mxCell>
        <mxCell id="_SgLw8yUqNkleDeMltTC-44" value="&lt;i&gt;&amp;lt;&amp;lt;System&amp;gt;&amp;gt;&lt;/i&gt;" style="text;html=1;align=center;verticalAlign=middle;resizable=0;points=[];autosize=1;strokeColor=none;fillColor=none;" vertex="1" parent="1">
          <mxGeometry x="810" y="1140" width="90" height="30" as="geometry" />
        </mxCell>
        <mxCell id="_SgLw8yUqNkleDeMltTC-49" value="" style="endArrow=open;endFill=1;endSize=12;html=1;rounded=0;entryX=1;entryY=1;entryDx=0;entryDy=0;exitX=0.5;exitY=0;exitDx=0;exitDy=0;" edge="1" parent="1" source="_SgLw8yUqNkleDeMltTC-110" target="_SgLw8yUqNkleDeMltTC-39">
          <mxGeometry width="160" relative="1" as="geometry">
            <mxPoint x="710" y="1140" as="sourcePoint" />
            <mxPoint x="620" y="790" as="targetPoint" />
          </mxGeometry>
        </mxCell>
        <mxCell id="_SgLw8yUqNkleDeMltTC-51" value="" style="shape=folder;fontStyle=1;spacingTop=10;tabWidth=140;tabHeight=30;tabPosition=left;html=1;whiteSpace=wrap;" vertex="1" parent="1">
          <mxGeometry x="160" y="1350" width="480" height="460" as="geometry" />
        </mxCell>
        <mxCell id="_SgLw8yUqNkleDeMltTC-52" value="Manajemen Tugas" style="text;html=1;align=center;verticalAlign=middle;resizable=0;points=[];autosize=1;strokeColor=none;fillColor=none;" vertex="1" parent="1">
          <mxGeometry x="165" y="1350" width="120" height="30" as="geometry" />
        </mxCell>
        <mxCell id="_SgLw8yUqNkleDeMltTC-53" value="Melihat Tampilan Tugas" style="ellipse;whiteSpace=wrap;html=1;" vertex="1" parent="1">
          <mxGeometry x="170" y="1565" width="140" height="70" as="geometry" />
        </mxCell>
        <mxCell id="_SgLw8yUqNkleDeMltTC-54" value="Masukkan Tugas" style="ellipse;whiteSpace=wrap;html=1;" vertex="1" parent="1">
          <mxGeometry x="200" y="1420" width="140" height="70" as="geometry" />
        </mxCell>
        <mxCell id="_SgLw8yUqNkleDeMltTC-55" value="Manual Menyesuaikan Tugas" style="ellipse;whiteSpace=wrap;html=1;" vertex="1" parent="1">
          <mxGeometry x="250" y="1690" width="140" height="70" as="geometry" />
        </mxCell>
        <mxCell id="_SgLw8yUqNkleDeMltTC-56" value="Mengusulkan Pemecahan Penyelesaian Tugas" style="ellipse;whiteSpace=wrap;html=1;" vertex="1" parent="1">
          <mxGeometry x="450" y="1650" width="140" height="70" as="geometry" />
        </mxCell>
        <mxCell id="_SgLw8yUqNkleDeMltTC-57" value="Extends" style="endArrow=block;endSize=16;endFill=0;html=1;rounded=0;exitX=0.5;exitY=0;exitDx=0;exitDy=0;entryX=0.5;entryY=1;entryDx=0;entryDy=0;" edge="1" source="_SgLw8yUqNkleDeMltTC-55" target="_SgLw8yUqNkleDeMltTC-53" parent="1">
          <mxGeometry width="160" relative="1" as="geometry">
            <mxPoint x="250" y="1620" as="sourcePoint" />
            <mxPoint x="410" y="1620" as="targetPoint" />
          </mxGeometry>
        </mxCell>
        <mxCell id="_SgLw8yUqNkleDeMltTC-58" value="Include" style="endArrow=block;endSize=16;endFill=0;html=1;rounded=0;exitX=0;exitY=0;exitDx=0;exitDy=0;" edge="1" source="_SgLw8yUqNkleDeMltTC-61" target="_SgLw8yUqNkleDeMltTC-54" parent="1">
          <mxGeometry width="160" relative="1" as="geometry">
            <mxPoint x="380" y="1560" as="sourcePoint" />
            <mxPoint x="410" y="1490" as="targetPoint" />
          </mxGeometry>
        </mxCell>
        <mxCell id="_SgLw8yUqNkleDeMltTC-59" value="Mengakses Jadwal Harian" style="ellipse;whiteSpace=wrap;html=1;" vertex="1" parent="1">
          <mxGeometry x="480" y="1440" width="140" height="70" as="geometry" />
        </mxCell>
        <mxCell id="_SgLw8yUqNkleDeMltTC-60" value="Include" style="endArrow=block;endSize=16;endFill=0;html=1;rounded=0;entryX=0.5;entryY=0;entryDx=0;entryDy=0;exitX=0.5;exitY=1;exitDx=0;exitDy=0;" edge="1" source="_SgLw8yUqNkleDeMltTC-59" target="_SgLw8yUqNkleDeMltTC-56" parent="1">
          <mxGeometry width="160" relative="1" as="geometry">
            <mxPoint x="440" y="1470" as="sourcePoint" />
            <mxPoint x="520" y="1470" as="targetPoint" />
          </mxGeometry>
        </mxCell>
        <mxCell id="_SgLw8yUqNkleDeMltTC-61" value="Menganalisis Data Tugas &amp;amp; Preferensi" style="ellipse;whiteSpace=wrap;html=1;" vertex="1" parent="1">
          <mxGeometry x="340" y="1530" width="140" height="70" as="geometry" />
        </mxCell>
        <mxCell id="_SgLw8yUqNkleDeMltTC-62" value="Include" style="endArrow=block;endSize=16;endFill=0;html=1;rounded=0;exitX=0;exitY=0;exitDx=0;exitDy=0;entryX=0.698;entryY=0.995;entryDx=0;entryDy=0;entryPerimeter=0;" edge="1" source="_SgLw8yUqNkleDeMltTC-56" target="_SgLw8yUqNkleDeMltTC-61" parent="1">
          <mxGeometry x="-0.0131" width="160" relative="1" as="geometry">
            <mxPoint x="310" y="1680" as="sourcePoint" />
            <mxPoint x="470" y="1680" as="targetPoint" />
            <mxPoint as="offset" />
          </mxGeometry>
        </mxCell>
        <mxCell id="_SgLw8yUqNkleDeMltTC-76" value="" style="shape=folder;fontStyle=1;spacingTop=10;tabWidth=150;tabHeight=30;tabPosition=left;html=1;whiteSpace=wrap;" vertex="1" parent="1">
          <mxGeometry x="110" y="1110" width="630" height="210" as="geometry" />
        </mxCell>
        <mxCell id="_SgLw8yUqNkleDeMltTC-77" value="Interaksi dengan Agent" style="text;html=1;align=center;verticalAlign=middle;resizable=0;points=[];autosize=1;strokeColor=none;fillColor=none;" vertex="1" parent="1">
          <mxGeometry x="110" y="1110" width="150" height="30" as="geometry" />
        </mxCell>
        <mxCell id="_SgLw8yUqNkleDeMltTC-87" value="Include" style="endArrow=block;endSize=16;endFill=0;html=1;rounded=0;exitX=0;exitY=0;exitDx=0;exitDy=0;entryX=0.698;entryY=0.995;entryDx=0;entryDy=0;entryPerimeter=0;" edge="1" source="_SgLw8yUqNkleDeMltTC-81" parent="1">
          <mxGeometry x="-0.0131" width="160" relative="1" as="geometry">
            <mxPoint x="-200" y="1480" as="sourcePoint" />
            <mxPoint x="-72.27999999999997" y="1399.65" as="targetPoint" />
            <mxPoint as="offset" />
          </mxGeometry>
        </mxCell>
        <mxCell id="_SgLw8yUqNkleDeMltTC-90" value="" style="endArrow=open;endFill=1;endSize=12;html=1;rounded=0;entryX=0.5;entryY=0;entryDx=0;entryDy=0;exitX=0.5;exitY=1;exitDx=0;exitDy=0;" edge="1" parent="1" source="_SgLw8yUqNkleDeMltTC-110" target="_SgLw8yUqNkleDeMltTC-59">
          <mxGeometry width="160" relative="1" as="geometry">
            <mxPoint x="710" y="1150" as="sourcePoint" />
            <mxPoint x="760" y="1140" as="targetPoint" />
          </mxGeometry>
        </mxCell>
        <mxCell id="_SgLw8yUqNkleDeMltTC-92" value="Berkomunikasi via Suara dengan Agent AI" style="ellipse;whiteSpace=wrap;html=1;" vertex="1" parent="1">
          <mxGeometry x="150" y="1190" width="160" height="70" as="geometry" />
        </mxCell>
        <mxCell id="_SgLw8yUqNkleDeMltTC-98" value="Layanan TTS" style="shape=umlActor;verticalLabelPosition=bottom;verticalAlign=top;html=1;outlineConnect=0;" vertex="1" parent="1">
          <mxGeometry x="750" y="1380" width="54" height="90" as="geometry" />
        </mxCell>
        <mxCell id="_SgLw8yUqNkleDeMltTC-99" value="Layanan STT" style="shape=umlActor;verticalLabelPosition=bottom;verticalAlign=top;html=1;outlineConnect=0;" vertex="1" parent="1">
          <mxGeometry x="750" y="995" width="54" height="90" as="geometry" />
        </mxCell>
        <mxCell id="_SgLw8yUqNkleDeMltTC-100" value="&lt;i&gt;&amp;lt;&amp;lt;System&amp;gt;&amp;gt;&lt;/i&gt;" style="text;html=1;align=center;verticalAlign=middle;resizable=0;points=[];autosize=1;strokeColor=none;fillColor=none;" vertex="1" parent="1">
          <mxGeometry x="732" y="965" width="90" height="30" as="geometry" />
        </mxCell>
        <mxCell id="_SgLw8yUqNkleDeMltTC-101" value="&lt;i&gt;&amp;lt;&amp;lt;System&amp;gt;&amp;gt;&lt;/i&gt;" style="text;html=1;align=center;verticalAlign=middle;resizable=0;points=[];autosize=1;strokeColor=none;fillColor=none;" vertex="1" parent="1">
          <mxGeometry x="732" y="1340" width="90" height="30" as="geometry" />
        </mxCell>
        <mxCell id="_SgLw8yUqNkleDeMltTC-102" value="" style="endArrow=open;endFill=1;endSize=12;html=1;rounded=0;entryX=0;entryY=0.5;entryDx=0;entryDy=0;" edge="1" parent="1" source="R8-eEjEKegjlY97keTf1-1" target="_SgLw8yUqNkleDeMltTC-92">
          <mxGeometry width="160" relative="1" as="geometry">
            <mxPoint x="90" y="1225" as="sourcePoint" />
            <mxPoint x="-240" y="1450" as="targetPoint" />
          </mxGeometry>
        </mxCell>
        <mxCell id="_SgLw8yUqNkleDeMltTC-104" value="Konversi Gelombang Suara ke Teks" style="ellipse;whiteSpace=wrap;html=1;" vertex="1" parent="1">
          <mxGeometry x="370" y="1160" width="160" height="60" as="geometry" />
        </mxCell>
        <mxCell id="_SgLw8yUqNkleDeMltTC-105" value="Extends" style="endArrow=block;endSize=16;endFill=0;html=1;rounded=0;exitX=0;exitY=0.5;exitDx=0;exitDy=0;entryX=1;entryY=0.5;entryDx=0;entryDy=0;" edge="1" parent="1" source="_SgLw8yUqNkleDeMltTC-104" target="_SgLw8yUqNkleDeMltTC-92">
          <mxGeometry width="160" relative="1" as="geometry">
            <mxPoint x="180" y="1230" as="sourcePoint" />
            <mxPoint x="340" y="1230" as="targetPoint" />
          </mxGeometry>
        </mxCell>
        <mxCell id="_SgLw8yUqNkleDeMltTC-106" value="Konversi&amp;nbsp; Teks ke Suara" style="ellipse;whiteSpace=wrap;html=1;" vertex="1" parent="1">
          <mxGeometry x="370" y="1245" width="160" height="60" as="geometry" />
        </mxCell>
        <mxCell id="_SgLw8yUqNkleDeMltTC-107" value="Extends" style="endArrow=block;endSize=16;endFill=0;html=1;rounded=0;entryX=1;entryY=0.5;entryDx=0;entryDy=0;exitX=0;exitY=0.5;exitDx=0;exitDy=0;" edge="1" parent="1" source="_SgLw8yUqNkleDeMltTC-106" target="_SgLw8yUqNkleDeMltTC-92">
          <mxGeometry x="0.0031" width="160" relative="1" as="geometry">
            <mxPoint x="410" y="1270" as="sourcePoint" />
            <mxPoint x="320" y="1210" as="targetPoint" />
            <mxPoint as="offset" />
          </mxGeometry>
        </mxCell>
        <mxCell id="_SgLw8yUqNkleDeMltTC-108" value="" style="endArrow=open;endFill=1;endSize=12;html=1;rounded=0;entryX=0.5;entryY=0;entryDx=0;entryDy=0;" edge="1" parent="1" target="_SgLw8yUqNkleDeMltTC-104">
          <mxGeometry width="160" relative="1" as="geometry">
            <mxPoint x="740" y="1050" as="sourcePoint" />
            <mxPoint x="360" y="1090" as="targetPoint" />
          </mxGeometry>
        </mxCell>
        <mxCell id="_SgLw8yUqNkleDeMltTC-110" value="Prompt" style="ellipse;whiteSpace=wrap;html=1;" vertex="1" parent="1">
          <mxGeometry x="570" y="1195" width="160" height="60" as="geometry" />
        </mxCell>
        <mxCell id="_SgLw8yUqNkleDeMltTC-111" value="" style="endArrow=open;endFill=1;endSize=12;html=1;rounded=0;entryX=1;entryY=0.5;entryDx=0;entryDy=0;" edge="1" parent="1" source="_SgLw8yUqNkleDeMltTC-43" target="_SgLw8yUqNkleDeMltTC-110">
          <mxGeometry width="160" relative="1" as="geometry">
            <mxPoint x="810" y="1220" as="sourcePoint" />
            <mxPoint x="560" y="1290" as="targetPoint" />
          </mxGeometry>
        </mxCell>
        <mxCell id="_SgLw8yUqNkleDeMltTC-112" value="Extends" style="endArrow=block;endSize=16;endFill=0;html=1;rounded=0;exitX=0;exitY=1;exitDx=0;exitDy=0;entryX=1;entryY=0.5;entryDx=0;entryDy=0;" edge="1" parent="1" source="_SgLw8yUqNkleDeMltTC-110" target="_SgLw8yUqNkleDeMltTC-106">
          <mxGeometry width="160" relative="1" as="geometry">
            <mxPoint x="380" y="1290" as="sourcePoint" />
            <mxPoint x="540" y="1290" as="targetPoint" />
          </mxGeometry>
        </mxCell>
        <mxCell id="_SgLw8yUqNkleDeMltTC-113" value="Extends" style="endArrow=block;endSize=16;endFill=0;html=1;rounded=0;exitX=0;exitY=0;exitDx=0;exitDy=0;entryX=1;entryY=0.5;entryDx=0;entryDy=0;entryPerimeter=0;" edge="1" parent="1" source="_SgLw8yUqNkleDeMltTC-110" target="_SgLw8yUqNkleDeMltTC-104">
          <mxGeometry width="160" relative="1" as="geometry">
            <mxPoint x="400" y="1290" as="sourcePoint" />
            <mxPoint x="560" y="1290" as="targetPoint" />
          </mxGeometry>
        </mxCell>
        <mxCell id="_SgLw8yUqNkleDeMltTC-114" value="" style="endArrow=open;endFill=1;endSize=12;html=1;rounded=0;exitX=0;exitY=0.3333333333333333;exitDx=0;exitDy=0;exitPerimeter=0;entryX=0.5;entryY=1;entryDx=0;entryDy=0;" edge="1" parent="1" source="_SgLw8yUqNkleDeMltTC-98" target="_SgLw8yUqNkleDeMltTC-106">
          <mxGeometry width="160" relative="1" as="geometry">
            <mxPoint x="400" y="1290" as="sourcePoint" />
            <mxPoint x="560" y="1290" as="targetPoint" />
          </mxGeometry>
        </mxCell>
        <mxCell id="_SgLw8yUqNkleDeMltTC-115" value="" style="endArrow=open;endFill=1;endSize=12;html=1;rounded=0;exitX=0;exitY=1;exitDx=0;exitDy=0;exitPerimeter=0;entryX=0;entryY=0.5;entryDx=0;entryDy=0;" edge="1" parent="1" source="R8-eEjEKegjlY97keTf1-1" target="_SgLw8yUqNkleDeMltTC-53">
          <mxGeometry width="160" relative="1" as="geometry">
            <mxPoint x="400" y="1290" as="sourcePoint" />
            <mxPoint x="560" y="1290" as="targetPoint" />
          </mxGeometry>
        </mxCell>
      </root>
    </mxGraphModel>
  </diagram>
</mxfile>
